<svg xmlns="http://www.w3.org/2000/svg" width="800" height="1000" viewBox="0 0 800 1000">
  <defs>
    <radialGradient id="neb" cx="0.5" cy="0.4" r="0.75">
      <stop offset="0" stop-color="#4c1d95" stop-opacity="0.9"/>
      <stop offset="0.55" stop-color="#1e1b4b" stop-opacity="0.9"/>
      <stop offset="1" stop-color="#050507"/>
    </radialGradient>
    <radialGradient id="glow" cx="0.5" cy="0.38" r="0.4">
      <stop offset="0" stop-color="#ffffff" stop-opacity="0.14"/>
      <stop offset="1" stop-color="#ffffff" stop-opacity="0"/>
    </radialGradient>
  </defs>
  <rect width="800" height="1000" fill="#050507"/>
  <rect width="800" height="1000" fill="url(#neb)"/>
  <rect width="800" height="1000" fill="url(#glow)"/>
  <g>
    <circle cx="259.1" cy="150.8" r="1.18" fill="#ffffff" fill-opacity="0.2"/>
    <circle cx="428.7" cy="365.7" r="0.47" fill="#ffffff" fill-opacity="0.53"/>
    <circle cx="30.0" cy="433.6" r="0.48" fill="#ffffff" fill-opacity="0.22"/>
    <circle cx="339.6" cy="826.9" r="0.55" fill="#ffffff" fill-opacity="0.32"/>
    <circle cx="501.9" cy="947.7" r="1.09" fill="#ffffff" fill-opacity="0.45"/>
    <circle cx="781.0" cy="46.6" r="1.43" fill="#ffffff" fill-opacity="0.37"/>
    <circle cx="115.4" cy="117.8" r="0.77" fill="#ffffff" fill-opacity="0.76"/>
    <circle cx="144.6" cy="581.6" r="1.17" fill="#ffffff" fill-opacity="0.43"/>
    <circle cx="438.2" cy="62.8" r="0.47" fill="#ffffff" fill-opacity="0.3"/>
    <circle cx="544.3" cy="427.6" r="0.78" fill="#ffffff" fill-opacity="0.59"/>
    <circle cx="362.5" cy="299.8" r="1.35" fill="#ffffff" fill-opacity="0.67"/>
    <circle cx="195.3" cy="574.4" r="1.03" fill="#ffffff" fill-opacity="0.81"/>
    <circle cx="583.6" cy="287.9" r="1.58" fill="#ffffff" fill-opacity="0.24"/>
    <circle cx="334.5" cy="757.1" r="0.58" fill="#ffffff" fill-opacity="0.52"/>
    <circle cx="31.4" cy="668.2" r="1.32" fill="#ffffff" fill-opacity="0.58"/>
    <circle cx="700.4" cy="313.7" r="1.23" fill="#ffffff" fill-opacity="0.6"/>
    <circle cx="463.9" cy="456.2" r="1.41" fill="#ffffff" fill-opacity="0.86"/>
    <circle cx="379.3" cy="664.2" r="0.47" fill="#ffffff" fill-opacity="0.68"/>
    <circle cx="517.7" cy="993.1" r="1.39" fill="#ffffff" fill-opacity="0.36"/>
    <circle cx="308.6" cy="668.7" r="0.43" fill="#ffffff" fill-opacity="0.5"/>
    <circle cx="134.4" cy="117.1" r="0.47" fill="#ffffff" fill-opacity="0.73"/>
    <circle cx="103.5" cy="247.6" r="0.87" fill="#ffffff" fill-opacity="0.8"/>
    <circle cx="64.5" cy="449.2" r="1.06" fill="#ffffff" fill-opacity="0.81"/>
    <circle cx="655.4" cy="864.0" r="0.73" fill="#ffffff" fill-opacity="0.46"/>
    <circle cx="287.0" cy="884.2" r="1.55" fill="#ffffff" fill-opacity="0.26"/>
    <circle cx="141.0" cy="232.0" r="0.68" fill="#ffffff" fill-opacity="0.51"/>
    <circle cx="471.3" cy="262.7" r="0.4" fill="#ffffff" fill-opacity="0.46"/>
    <circle cx="295.4" cy="566.3" r="1.54" fill="#ffffff" fill-opacity="0.67"/>
    <circle cx="412.4" cy="617.6" r="1.21" fill="#ffffff" fill-opacity="0.19"/>
    <circle cx="719.6" cy="780.0" r="1.45" fill="#ffffff" fill-opacity="0.75"/>
    <circle cx="313.9" cy="399.0" r="0.52" fill="#ffffff" fill-opacity="0.63"/>
    <circle cx="49.8" cy="67.3" r="0.65" fill="#ffffff" fill-opacity="0.27"/>
    <circle cx="272.0" cy="52.6" r="0.4" fill="#ffffff" fill-opacity="0.26"/>
    <circle cx="81.2" cy="363.6" r="0.43" fill="#ffffff" fill-opacity="0.81"/>
    <circle cx="491.3" cy="148.6" r="0.7" fill="#ffffff" fill-opacity="0.41"/>
    <circle cx="291.3" cy="122.8" r="1.42" fill="#ffffff" fill-opacity="0.89"/>
    <circle cx="372.8" cy="483.8" r="0.5" fill="#ffffff" fill-opacity="0.23"/>
    <circle cx="274.1" cy="264.8" r="1.39" fill="#ffffff" fill-opacity="0.27"/>
    <circle cx="18.5" cy="951.0" r="1.03" fill="#ffffff" fill-opacity="0.26"/>
    <circle cx="434.5" cy="27.0" r="1.03" fill="#ffffff" fill-opacity="0.88"/>
    <circle cx="690.7" cy="696.2" r="0.71" fill="#ffffff" fill-opacity="0.43"/>
    <circle cx="133.6" cy="771.9" r="1.04" fill="#ffffff" fill-opacity="0.73"/>
    <circle cx="263.7" cy="223.0" r="1.37" fill="#ffffff" fill-opacity="0.89"/>
    <circle cx="682.1" cy="806.1" r="1.38" fill="#ffffff" fill-opacity="0.7"/>
    <circle cx="181.4" cy="517.6" r="0.83" fill="#ffffff" fill-opacity="0.17"/>
    <circle cx="22.3" cy="279.4" r="0.71" fill="#ffffff" fill-opacity="0.67"/>
    <circle cx="765.2" cy="447.2" r="1.52" fill="#ffffff" fill-opacity="0.89"/>
    <circle cx="764.0" cy="364.6" r="0.66" fill="#ffffff" fill-opacity="0.32"/>
    <circle cx="157.4" cy="204.4" r="1.15" fill="#ffffff" fill-opacity="0.83"/>
    <circle cx="672.3" cy="479.5" r="1.18" fill="#ffffff" fill-opacity="0.75"/>
    <circle cx="67.8" cy="660.6" r="1.49" fill="#ffffff" fill-opacity="0.74"/>
    <circle cx="600.1" cy="478.0" r="0.61" fill="#ffffff" fill-opacity="0.74"/>
    <circle cx="266.0" cy="800.8" r="1.57" fill="#ffffff" fill-opacity="0.45"/>
    <circle cx="321.1" cy="946.8" r="1.27" fill="#ffffff" fill-opacity="0.28"/>
    <circle cx="101.6" cy="151.2" r="1.49" fill="#ffffff" fill-opacity="0.75"/>
    <circle cx="116.9" cy="826.5" r="1.58" fill="#ffffff" fill-opacity="0.64"/>
    <circle cx="280.3" cy="548.7" r="0.56" fill="#ffffff" fill-opacity="0.16"/>
    <circle cx="776.7" cy="649.7" r="1.03" fill="#ffffff" fill-opacity="0.85"/>
    <circle cx="347.0" cy="871.7" r="1.39" fill="#ffffff" fill-opacity="0.31"/>
    <circle cx="201.5" cy="293.0" r="0.69" fill="#ffffff" fill-opacity="0.59"/>
    <circle cx="207.5" cy="419.0" r="0.56" fill="#ffffff" fill-opacity="0.83"/>
    <circle cx="283.0" cy="458.2" r="1.1" fill="#ffffff" fill-opacity="0.83"/>
    <circle cx="336.5" cy="917.7" r="1.0" fill="#ffffff" fill-opacity="0.55"/>
    <circle cx="418.8" cy="18.7" r="0.93" fill="#ffffff" fill-opacity="0.29"/>
    <circle cx="3.1" cy="799.2" r="0.61" fill="#ffffff" fill-opacity="0.51"/>
    <circle cx="580.2" cy="556.5" r="0.79" fill="#ffffff" fill-opacity="0.54"/>
    <circle cx="444.4" cy="784.3" r="0.53" fill="#ffffff" fill-opacity="0.57"/>
    <circle cx="198.8" cy="276.9" r="1.33" fill="#ffffff" fill-opacity="0.53"/>
    <circle cx="449.4" cy="760.0" r="1.49" fill="#ffffff" fill-opacity="0.48"/>
    <circle cx="490.0" cy="505.6" r="1.01" fill="#ffffff" fill-opacity="0.67"/>
    <circle cx="361.9" cy="533.3" r="0.97" fill="#ffffff" fill-opacity="0.86"/>
    <circle cx="559.4" cy="876.5" r="1.53" fill="#ffffff" fill-opacity="0.34"/>
    <circle cx="447.6" cy="943.3" r="1.41" fill="#ffffff" fill-opacity="0.25"/>
    <circle cx="97.3" cy="442.1" r="0.49" fill="#ffffff" fill-opacity="0.33"/>
    <circle cx="58.5" cy="669.5" r="1.34" fill="#ffffff" fill-opacity="0.82"/>
    <circle cx="123.6" cy="716.1" r="1.19" fill="#ffffff" fill-opacity="0.26"/>
    <circle cx="706.3" cy="967.5" r="0.66" fill="#ffffff" fill-opacity="0.86"/>
    <circle cx="318.6" cy="487.3" r="1.59" fill="#ffffff" fill-opacity="0.77"/>
    <circle cx="129.2" cy="431.5" r="1.02" fill="#ffffff" fill-opacity="0.4"/>
    <circle cx="156.6" cy="318.5" r="1.27" fill="#ffffff" fill-opacity="0.16"/>
    <circle cx="443.2" cy="440.5" r="0.42" fill="#ffffff" fill-opacity="0.4"/>
    <circle cx="499.1" cy="512.3" r="0.48" fill="#ffffff" fill-opacity="0.89"/>
    <circle cx="630.7" cy="971.7" r="0.53" fill="#ffffff" fill-opacity="0.35"/>
    <circle cx="31.7" cy="779.0" r="0.72" fill="#ffffff" fill-opacity="0.25"/>
    <circle cx="337.8" cy="911.4" r="1.38" fill="#ffffff" fill-opacity="0.34"/>
    <circle cx="119.5" cy="919.2" r="1.08" fill="#ffffff" fill-opacity="0.68"/>
    <circle cx="71.6" cy="57.5" r="1.23" fill="#ffffff" fill-opacity="0.47"/>
    <circle cx="57.9" cy="938.3" r="1.16" fill="#ffffff" fill-opacity="0.75"/>
    <circle cx="67.0" cy="856.2" r="0.48" fill="#ffffff" fill-opacity="0.8"/>
    <circle cx="363.0" cy="339.2" r="1.06" fill="#ffffff" fill-opacity="0.85"/>
  </g>
  <circle cx="400" cy="400" r="150" fill="none" stroke="#ffffff" stroke-opacity="0.10" stroke-width="1"/>
  <circle cx="400" cy="400" r="210" fill="none" stroke="#ffffff" stroke-opacity="0.06" stroke-width="1"/>
  <circle cx="550" cy="400" r="4" fill="#ffffff" fill-opacity="0.6"/>
  <text x="400" y="430" font-family="Arial Black, Arial, sans-serif" font-size="150" font-weight="900"
        fill="#ffffff" fill-opacity="0.06" text-anchor="middle" letter-spacing="-4">VOID</text>
  <g font-family="Arial, sans-serif" text-anchor="middle">
    <text x="400" y="905" font-size="26" font-weight="700" letter-spacing="3" fill="#e7e5e4" fill-opacity="0.9">5B' ARMOR DENIM</text>
  </g>
</svg>
