<svg xmlns="http://www.w3.org/2000/svg" width="800" height="1000" viewBox="0 0 800 1000">
  <defs>
    <radialGradient id="neb" cx="0.5" cy="0.4" r="0.75">
      <stop offset="0" stop-color="#155e75" stop-opacity="0.9"/>
      <stop offset="0.55" stop-color="#0c1a3a" stop-opacity="0.9"/>
      <stop offset="1" stop-color="#050507"/>
    </radialGradient>
    <radialGradient id="glow" cx="0.5" cy="0.38" r="0.4">
      <stop offset="0" stop-color="#ffffff" stop-opacity="0.14"/>
      <stop offset="1" stop-color="#ffffff" stop-opacity="0"/>
    </radialGradient>
  </defs>
  <rect width="800" height="1000" fill="#050507"/>
  <rect width="800" height="1000" fill="url(#neb)"/>
  <rect width="800" height="1000" fill="url(#glow)"/>
  <g>
    <circle cx="214.3" cy="129.2" r="1.03" fill="#ffffff" fill-opacity="0.33"/>
    <circle cx="87.6" cy="161.4" r="0.46" fill="#ffffff" fill-opacity="0.3"/>
    <circle cx="249.6" cy="305.0" r="1.31" fill="#ffffff" fill-opacity="0.37"/>
    <circle cx="400.1" cy="177.9" r="0.82" fill="#ffffff" fill-opacity="0.16"/>
    <circle cx="200.4" cy="15.3" r="1.28" fill="#ffffff" fill-opacity="0.56"/>
    <circle cx="151.6" cy="474.8" r="1.52" fill="#ffffff" fill-opacity="0.23"/>
    <circle cx="655.1" cy="432.2" r="0.99" fill="#ffffff" fill-opacity="0.78"/>
    <circle cx="314.5" cy="506.7" r="1.23" fill="#ffffff" fill-opacity="0.89"/>
    <circle cx="274.2" cy="832.3" r="1.25" fill="#ffffff" fill-opacity="0.63"/>
    <circle cx="323.8" cy="347.6" r="0.47" fill="#ffffff" fill-opacity="0.25"/>
    <circle cx="56.6" cy="740.9" r="0.71" fill="#ffffff" fill-opacity="0.27"/>
    <circle cx="67.6" cy="841.3" r="1.44" fill="#ffffff" fill-opacity="0.65"/>
    <circle cx="225.5" cy="242.2" r="0.75" fill="#ffffff" fill-opacity="0.49"/>
    <circle cx="126.0" cy="445.8" r="0.72" fill="#ffffff" fill-opacity="0.87"/>
    <circle cx="778.1" cy="547.1" r="0.69" fill="#ffffff" fill-opacity="0.87"/>
    <circle cx="247.6" cy="356.6" r="0.4" fill="#ffffff" fill-opacity="0.44"/>
    <circle cx="379.7" cy="502.8" r="0.64" fill="#ffffff" fill-opacity="0.53"/>
    <circle cx="4.0" cy="264.2" r="0.51" fill="#ffffff" fill-opacity="0.45"/>
    <circle cx="33.3" cy="22.5" r="0.77" fill="#ffffff" fill-opacity="0.32"/>
    <circle cx="468.5" cy="529.2" r="1.3" fill="#ffffff" fill-opacity="0.64"/>
    <circle cx="572.8" cy="879.1" r="0.87" fill="#ffffff" fill-opacity="0.39"/>
    <circle cx="787.8" cy="149.5" r="1.27" fill="#ffffff" fill-opacity="0.63"/>
    <circle cx="35.0" cy="835.3" r="1.47" fill="#ffffff" fill-opacity="0.62"/>
    <circle cx="587.1" cy="812.2" r="0.57" fill="#ffffff" fill-opacity="0.54"/>
    <circle cx="403.5" cy="834.9" r="1.37" fill="#ffffff" fill-opacity="0.77"/>
    <circle cx="467.2" cy="892.8" r="1.22" fill="#ffffff" fill-opacity="0.67"/>
    <circle cx="184.0" cy="31.2" r="0.56" fill="#ffffff" fill-opacity="0.42"/>
    <circle cx="83.9" cy="835.8" r="1.07" fill="#ffffff" fill-opacity="0.62"/>
    <circle cx="501.0" cy="680.7" r="0.99" fill="#ffffff" fill-opacity="0.15"/>
    <circle cx="638.2" cy="748.3" r="1.0" fill="#ffffff" fill-opacity="0.55"/>
    <circle cx="527.4" cy="66.1" r="1.28" fill="#ffffff" fill-opacity="0.34"/>
    <circle cx="59.6" cy="265.6" r="1.28" fill="#ffffff" fill-opacity="0.3"/>
    <circle cx="591.9" cy="975.7" r="0.99" fill="#ffffff" fill-opacity="0.44"/>
    <circle cx="383.2" cy="683.7" r="1.32" fill="#ffffff" fill-opacity="0.61"/>
    <circle cx="514.2" cy="77.5" r="0.58" fill="#ffffff" fill-opacity="0.34"/>
    <circle cx="594.6" cy="304.4" r="1.08" fill="#ffffff" fill-opacity="0.16"/>
    <circle cx="48.5" cy="268.8" r="1.21" fill="#ffffff" fill-opacity="0.67"/>
    <circle cx="540.6" cy="290.9" r="1.02" fill="#ffffff" fill-opacity="0.5"/>
    <circle cx="373.1" cy="118.5" r="1.47" fill="#ffffff" fill-opacity="0.3"/>
    <circle cx="782.5" cy="936.3" r="0.42" fill="#ffffff" fill-opacity="0.49"/>
    <circle cx="655.9" cy="968.1" r="0.94" fill="#ffffff" fill-opacity="0.35"/>
    <circle cx="167.9" cy="945.6" r="0.65" fill="#ffffff" fill-opacity="0.59"/>
    <circle cx="113.4" cy="524.1" r="1.54" fill="#ffffff" fill-opacity="0.25"/>
    <circle cx="656.2" cy="508.7" r="1.46" fill="#ffffff" fill-opacity="0.68"/>
    <circle cx="185.1" cy="897.7" r="0.98" fill="#ffffff" fill-opacity="0.17"/>
    <circle cx="2.9" cy="491.7" r="0.94" fill="#ffffff" fill-opacity="0.38"/>
    <circle cx="112.6" cy="344.0" r="0.78" fill="#ffffff" fill-opacity="0.78"/>
    <circle cx="1.4" cy="750.7" r="1.41" fill="#ffffff" fill-opacity="0.24"/>
    <circle cx="741.1" cy="713.0" r="1.48" fill="#ffffff" fill-opacity="0.37"/>
    <circle cx="297.8" cy="392.9" r="1.6" fill="#ffffff" fill-opacity="0.59"/>
    <circle cx="288.6" cy="428.1" r="0.73" fill="#ffffff" fill-opacity="0.19"/>
    <circle cx="81.4" cy="834.7" r="0.74" fill="#ffffff" fill-opacity="0.85"/>
    <circle cx="199.5" cy="265.7" r="1.01" fill="#ffffff" fill-opacity="0.29"/>
    <circle cx="298.7" cy="956.2" r="1.46" fill="#ffffff" fill-opacity="0.76"/>
    <circle cx="504.7" cy="913.4" r="1.53" fill="#ffffff" fill-opacity="0.56"/>
    <circle cx="575.7" cy="49.5" r="1.28" fill="#ffffff" fill-opacity="0.49"/>
    <circle cx="602.1" cy="644.5" r="0.74" fill="#ffffff" fill-opacity="0.19"/>
    <circle cx="741.4" cy="127.3" r="0.97" fill="#ffffff" fill-opacity="0.41"/>
    <circle cx="238.2" cy="739.0" r="1.57" fill="#ffffff" fill-opacity="0.35"/>
    <circle cx="524.8" cy="300.8" r="1.07" fill="#ffffff" fill-opacity="0.45"/>
    <circle cx="133.9" cy="161.7" r="0.65" fill="#ffffff" fill-opacity="0.83"/>
    <circle cx="397.7" cy="220.0" r="1.49" fill="#ffffff" fill-opacity="0.9"/>
    <circle cx="360.0" cy="139.6" r="0.63" fill="#ffffff" fill-opacity="0.22"/>
    <circle cx="273.6" cy="91.1" r="0.69" fill="#ffffff" fill-opacity="0.34"/>
    <circle cx="455.7" cy="887.3" r="1.3" fill="#ffffff" fill-opacity="0.46"/>
    <circle cx="331.1" cy="524.2" r="0.85" fill="#ffffff" fill-opacity="0.4"/>
    <circle cx="49.6" cy="277.5" r="1.56" fill="#ffffff" fill-opacity="0.24"/>
    <circle cx="402.7" cy="629.6" r="1.44" fill="#ffffff" fill-opacity="0.31"/>
    <circle cx="216.8" cy="248.5" r="0.88" fill="#ffffff" fill-opacity="0.48"/>
    <circle cx="763.2" cy="848.7" r="1.45" fill="#ffffff" fill-opacity="0.17"/>
    <circle cx="25.8" cy="709.5" r="1.47" fill="#ffffff" fill-opacity="0.5"/>
    <circle cx="469.7" cy="0.2" r="0.87" fill="#ffffff" fill-opacity="0.85"/>
    <circle cx="660.5" cy="855.5" r="1.57" fill="#ffffff" fill-opacity="0.34"/>
    <circle cx="87.2" cy="154.4" r="1.03" fill="#ffffff" fill-opacity="0.66"/>
    <circle cx="753.2" cy="721.7" r="1.18" fill="#ffffff" fill-opacity="0.72"/>
    <circle cx="365.9" cy="551.5" r="0.45" fill="#ffffff" fill-opacity="0.74"/>
    <circle cx="186.1" cy="919.9" r="1.17" fill="#ffffff" fill-opacity="0.38"/>
    <circle cx="102.4" cy="251.8" r="1.16" fill="#ffffff" fill-opacity="0.67"/>
    <circle cx="89.7" cy="70.4" r="1.03" fill="#ffffff" fill-opacity="0.59"/>
    <circle cx="310.5" cy="223.6" r="1.12" fill="#ffffff" fill-opacity="0.16"/>
    <circle cx="241.2" cy="460.7" r="1.55" fill="#ffffff" fill-opacity="0.63"/>
    <circle cx="707.0" cy="475.3" r="0.68" fill="#ffffff" fill-opacity="0.34"/>
    <circle cx="768.5" cy="704.7" r="0.77" fill="#ffffff" fill-opacity="0.17"/>
    <circle cx="398.6" cy="674.5" r="0.9" fill="#ffffff" fill-opacity="0.34"/>
    <circle cx="533.9" cy="925.2" r="0.67" fill="#ffffff" fill-opacity="0.18"/>
    <circle cx="270.4" cy="420.6" r="1.22" fill="#ffffff" fill-opacity="0.3"/>
    <circle cx="637.7" cy="739.1" r="1.01" fill="#ffffff" fill-opacity="0.3"/>
    <circle cx="775.9" cy="311.7" r="1.38" fill="#ffffff" fill-opacity="0.32"/>
    <circle cx="177.2" cy="760.5" r="0.75" fill="#ffffff" fill-opacity="0.86"/>
    <circle cx="396.6" cy="187.3" r="0.67" fill="#ffffff" fill-opacity="0.46"/>
  </g>
  <circle cx="400" cy="400" r="150" fill="none" stroke="#ffffff" stroke-opacity="0.10" stroke-width="1"/>
  <circle cx="400" cy="400" r="210" fill="none" stroke="#ffffff" stroke-opacity="0.06" stroke-width="1"/>
  <circle cx="550" cy="400" r="4" fill="#ffffff" fill-opacity="0.6"/>
  <text x="400" y="430" font-family="Arial Black, Arial, sans-serif" font-size="150" font-weight="900"
        fill="#ffffff" fill-opacity="0.06" text-anchor="middle" letter-spacing="-4">VOID</text>
  <g font-family="Arial, sans-serif" text-anchor="middle">
    <text x="400" y="875" font-size="26" font-weight="700" letter-spacing="3" fill="#e7e5e4" fill-opacity="0.9">22' CONCRETE CUBAN</text>
    <text x="400" y="909" font-size="26" font-weight="700" letter-spacing="3" fill="#e7e5e4" fill-opacity="0.9">SHIRT</text>
  </g>
</svg>
