<svg xmlns="http://www.w3.org/2000/svg" width="800" height="1000" viewBox="0 0 800 1000">
  <defs>
    <radialGradient id="neb" cx="0.5" cy="0.4" r="0.75">
      <stop offset="0" stop-color="#0e7490" stop-opacity="0.9"/>
      <stop offset="0.55" stop-color="#0b1220" stop-opacity="0.9"/>
      <stop offset="1" stop-color="#050507"/>
    </radialGradient>
    <radialGradient id="glow" cx="0.5" cy="0.38" r="0.4">
      <stop offset="0" stop-color="#ffffff" stop-opacity="0.14"/>
      <stop offset="1" stop-color="#ffffff" stop-opacity="0"/>
    </radialGradient>
  </defs>
  <rect width="800" height="1000" fill="#050507"/>
  <rect width="800" height="1000" fill="url(#neb)"/>
  <rect width="800" height="1000" fill="url(#glow)"/>
  <g>
    <circle cx="342.8" cy="637.3" r="1.19" fill="#ffffff" fill-opacity="0.42"/>
    <circle cx="743.0" cy="854.4" r="0.47" fill="#ffffff" fill-opacity="0.77"/>
    <circle cx="724.6" cy="784.0" r="0.57" fill="#ffffff" fill-opacity="0.77"/>
    <circle cx="506.5" cy="15.0" r="0.41" fill="#ffffff" fill-opacity="0.86"/>
    <circle cx="524.8" cy="250.0" r="0.52" fill="#ffffff" fill-opacity="0.26"/>
    <circle cx="186.9" cy="776.3" r="0.82" fill="#ffffff" fill-opacity="0.26"/>
    <circle cx="723.3" cy="791.7" r="0.6" fill="#ffffff" fill-opacity="0.82"/>
    <circle cx="486.7" cy="781.3" r="1.2" fill="#ffffff" fill-opacity="0.82"/>
    <circle cx="630.5" cy="838.8" r="0.64" fill="#ffffff" fill-opacity="0.67"/>
    <circle cx="424.6" cy="741.9" r="0.93" fill="#ffffff" fill-opacity="0.81"/>
    <circle cx="444.1" cy="264.5" r="0.68" fill="#ffffff" fill-opacity="0.25"/>
    <circle cx="394.5" cy="58.5" r="0.96" fill="#ffffff" fill-opacity="0.26"/>
    <circle cx="393.1" cy="498.2" r="1.05" fill="#ffffff" fill-opacity="0.8"/>
    <circle cx="5.3" cy="840.8" r="0.96" fill="#ffffff" fill-opacity="0.57"/>
    <circle cx="532.2" cy="840.6" r="0.85" fill="#ffffff" fill-opacity="0.46"/>
    <circle cx="768.5" cy="75.4" r="1.16" fill="#ffffff" fill-opacity="0.63"/>
    <circle cx="22.8" cy="609.7" r="1.22" fill="#ffffff" fill-opacity="0.85"/>
    <circle cx="264.4" cy="981.7" r="1.01" fill="#ffffff" fill-opacity="0.51"/>
    <circle cx="718.0" cy="33.9" r="1.26" fill="#ffffff" fill-opacity="0.62"/>
    <circle cx="270.9" cy="861.7" r="0.84" fill="#ffffff" fill-opacity="0.51"/>
    <circle cx="420.4" cy="770.6" r="0.65" fill="#ffffff" fill-opacity="0.48"/>
    <circle cx="337.9" cy="554.0" r="1.39" fill="#ffffff" fill-opacity="0.37"/>
    <circle cx="662.2" cy="403.7" r="1.0" fill="#ffffff" fill-opacity="0.35"/>
    <circle cx="405.1" cy="975.0" r="1.19" fill="#ffffff" fill-opacity="0.74"/>
    <circle cx="264.7" cy="317.1" r="0.76" fill="#ffffff" fill-opacity="0.59"/>
    <circle cx="507.9" cy="784.2" r="0.45" fill="#ffffff" fill-opacity="0.69"/>
    <circle cx="708.5" cy="545.4" r="0.46" fill="#ffffff" fill-opacity="0.38"/>
    <circle cx="5.0" cy="189.9" r="1.51" fill="#ffffff" fill-opacity="0.61"/>
    <circle cx="526.4" cy="789.0" r="1.49" fill="#ffffff" fill-opacity="0.61"/>
    <circle cx="493.4" cy="626.8" r="1.24" fill="#ffffff" fill-opacity="0.6"/>
    <circle cx="544.8" cy="212.5" r="1.2" fill="#ffffff" fill-opacity="0.49"/>
    <circle cx="610.1" cy="101.4" r="0.62" fill="#ffffff" fill-opacity="0.18"/>
    <circle cx="619.6" cy="914.1" r="1.19" fill="#ffffff" fill-opacity="0.43"/>
    <circle cx="658.1" cy="786.5" r="1.07" fill="#ffffff" fill-opacity="0.34"/>
    <circle cx="241.6" cy="421.8" r="0.78" fill="#ffffff" fill-opacity="0.47"/>
    <circle cx="513.4" cy="933.9" r="0.47" fill="#ffffff" fill-opacity="0.58"/>
    <circle cx="31.5" cy="118.8" r="1.37" fill="#ffffff" fill-opacity="0.58"/>
    <circle cx="734.9" cy="446.5" r="0.42" fill="#ffffff" fill-opacity="0.44"/>
    <circle cx="473.6" cy="937.7" r="1.58" fill="#ffffff" fill-opacity="0.51"/>
    <circle cx="329.9" cy="102.0" r="1.17" fill="#ffffff" fill-opacity="0.31"/>
    <circle cx="121.4" cy="15.5" r="0.41" fill="#ffffff" fill-opacity="0.66"/>
    <circle cx="97.3" cy="966.3" r="0.51" fill="#ffffff" fill-opacity="0.8"/>
    <circle cx="103.2" cy="17.8" r="1.26" fill="#ffffff" fill-opacity="0.33"/>
    <circle cx="586.8" cy="187.4" r="0.46" fill="#ffffff" fill-opacity="0.73"/>
    <circle cx="570.8" cy="855.5" r="1.28" fill="#ffffff" fill-opacity="0.21"/>
    <circle cx="502.9" cy="709.2" r="0.95" fill="#ffffff" fill-opacity="0.85"/>
    <circle cx="203.2" cy="964.3" r="1.26" fill="#ffffff" fill-opacity="0.16"/>
    <circle cx="11.8" cy="650.7" r="1.38" fill="#ffffff" fill-opacity="0.21"/>
    <circle cx="248.9" cy="729.4" r="0.6" fill="#ffffff" fill-opacity="0.8"/>
    <circle cx="389.1" cy="59.8" r="0.84" fill="#ffffff" fill-opacity="0.58"/>
    <circle cx="351.0" cy="676.9" r="0.57" fill="#ffffff" fill-opacity="0.75"/>
    <circle cx="290.6" cy="644.9" r="1.16" fill="#ffffff" fill-opacity="0.46"/>
    <circle cx="308.6" cy="786.2" r="1.53" fill="#ffffff" fill-opacity="0.74"/>
    <circle cx="453.5" cy="292.4" r="0.47" fill="#ffffff" fill-opacity="0.88"/>
    <circle cx="562.6" cy="827.4" r="0.8" fill="#ffffff" fill-opacity="0.6"/>
    <circle cx="782.0" cy="831.3" r="1.12" fill="#ffffff" fill-opacity="0.38"/>
    <circle cx="342.8" cy="888.1" r="0.85" fill="#ffffff" fill-opacity="0.66"/>
    <circle cx="481.4" cy="896.1" r="1.37" fill="#ffffff" fill-opacity="0.36"/>
    <circle cx="1.3" cy="263.0" r="0.91" fill="#ffffff" fill-opacity="0.59"/>
    <circle cx="652.8" cy="887.4" r="0.45" fill="#ffffff" fill-opacity="0.77"/>
    <circle cx="649.4" cy="867.2" r="1.09" fill="#ffffff" fill-opacity="0.36"/>
    <circle cx="680.9" cy="807.0" r="1.22" fill="#ffffff" fill-opacity="0.84"/>
    <circle cx="277.5" cy="85.1" r="1.06" fill="#ffffff" fill-opacity="0.75"/>
    <circle cx="160.3" cy="750.2" r="1.52" fill="#ffffff" fill-opacity="0.33"/>
    <circle cx="485.5" cy="677.7" r="0.96" fill="#ffffff" fill-opacity="0.3"/>
    <circle cx="203.8" cy="751.1" r="1.35" fill="#ffffff" fill-opacity="0.49"/>
    <circle cx="70.2" cy="806.6" r="1.33" fill="#ffffff" fill-opacity="0.32"/>
    <circle cx="463.7" cy="896.9" r="1.46" fill="#ffffff" fill-opacity="0.54"/>
    <circle cx="381.3" cy="589.3" r="0.63" fill="#ffffff" fill-opacity="0.29"/>
    <circle cx="144.6" cy="701.1" r="0.84" fill="#ffffff" fill-opacity="0.57"/>
    <circle cx="322.0" cy="517.2" r="0.58" fill="#ffffff" fill-opacity="0.18"/>
    <circle cx="797.7" cy="374.0" r="0.53" fill="#ffffff" fill-opacity="0.62"/>
    <circle cx="629.9" cy="156.2" r="1.12" fill="#ffffff" fill-opacity="0.41"/>
    <circle cx="415.6" cy="20.6" r="0.44" fill="#ffffff" fill-opacity="0.89"/>
    <circle cx="692.9" cy="486.3" r="1.08" fill="#ffffff" fill-opacity="0.35"/>
    <circle cx="623.4" cy="425.9" r="1.54" fill="#ffffff" fill-opacity="0.73"/>
    <circle cx="655.1" cy="963.5" r="0.7" fill="#ffffff" fill-opacity="0.18"/>
    <circle cx="160.8" cy="180.7" r="0.5" fill="#ffffff" fill-opacity="0.19"/>
    <circle cx="445.9" cy="870.7" r="0.95" fill="#ffffff" fill-opacity="0.86"/>
    <circle cx="727.9" cy="64.2" r="1.12" fill="#ffffff" fill-opacity="0.45"/>
    <circle cx="95.9" cy="959.3" r="0.71" fill="#ffffff" fill-opacity="0.57"/>
    <circle cx="512.5" cy="956.4" r="1.2" fill="#ffffff" fill-opacity="0.44"/>
    <circle cx="358.7" cy="159.7" r="1.56" fill="#ffffff" fill-opacity="0.89"/>
    <circle cx="177.4" cy="38.6" r="0.71" fill="#ffffff" fill-opacity="0.41"/>
    <circle cx="722.2" cy="904.6" r="1.4" fill="#ffffff" fill-opacity="0.19"/>
    <circle cx="629.1" cy="709.6" r="1.18" fill="#ffffff" fill-opacity="0.89"/>
    <circle cx="44.6" cy="144.8" r="1.31" fill="#ffffff" fill-opacity="0.85"/>
    <circle cx="541.5" cy="298.8" r="1.11" fill="#ffffff" fill-opacity="0.72"/>
    <circle cx="84.3" cy="323.9" r="0.71" fill="#ffffff" fill-opacity="0.24"/>
    <circle cx="385.1" cy="168.6" r="0.69" fill="#ffffff" fill-opacity="0.26"/>
  </g>
  <circle cx="400" cy="400" r="150" fill="none" stroke="#ffffff" stroke-opacity="0.10" stroke-width="1"/>
  <circle cx="400" cy="400" r="210" fill="none" stroke="#ffffff" stroke-opacity="0.06" stroke-width="1"/>
  <circle cx="550" cy="400" r="4" fill="#ffffff" fill-opacity="0.6"/>
  <text x="400" y="430" font-family="Arial Black, Arial, sans-serif" font-size="150" font-weight="900"
        fill="#ffffff" fill-opacity="0.06" text-anchor="middle" letter-spacing="-4">VOID</text>
  <g font-family="Arial, sans-serif" text-anchor="middle">
    <text x="400" y="875" font-size="26" font-weight="700" letter-spacing="3" fill="#e7e5e4" fill-opacity="0.9">MERC X LH44</text>
    <text x="400" y="909" font-size="26" font-weight="700" letter-spacing="3" fill="#e7e5e4" fill-opacity="0.9">OVERSIZED TEE</text>
  </g>
</svg>
