<svg xmlns="http://www.w3.org/2000/svg" width="800" height="1000" viewBox="0 0 800 1000">
  <defs>
    <radialGradient id="neb" cx="0.5" cy="0.4" r="0.75">
      <stop offset="0" stop-color="#1e3a8a" stop-opacity="0.9"/>
      <stop offset="0.55" stop-color="#0f172a" stop-opacity="0.9"/>
      <stop offset="1" stop-color="#050507"/>
    </radialGradient>
    <radialGradient id="glow" cx="0.5" cy="0.38" r="0.4">
      <stop offset="0" stop-color="#ffffff" stop-opacity="0.14"/>
      <stop offset="1" stop-color="#ffffff" stop-opacity="0"/>
    </radialGradient>
  </defs>
  <rect width="800" height="1000" fill="#050507"/>
  <rect width="800" height="1000" fill="url(#neb)"/>
  <rect width="800" height="1000" fill="url(#glow)"/>
  <g>
    <circle cx="179.4" cy="583.6" r="1.11" fill="#ffffff" fill-opacity="0.3"/>
    <circle cx="499.1" cy="474.9" r="0.56" fill="#ffffff" fill-opacity="0.85"/>
    <circle cx="194.9" cy="149.3" r="0.51" fill="#ffffff" fill-opacity="0.63"/>
    <circle cx="697.0" cy="782.2" r="0.88" fill="#ffffff" fill-opacity="0.35"/>
    <circle cx="9.2" cy="644.9" r="1.07" fill="#ffffff" fill-opacity="0.41"/>
    <circle cx="516.5" cy="443.8" r="1.52" fill="#ffffff" fill-opacity="0.7"/>
    <circle cx="198.8" cy="903.5" r="0.45" fill="#ffffff" fill-opacity="0.55"/>
    <circle cx="324.8" cy="237.7" r="0.47" fill="#ffffff" fill-opacity="0.73"/>
    <circle cx="9.9" cy="550.9" r="1.53" fill="#ffffff" fill-opacity="0.26"/>
    <circle cx="159.6" cy="608.1" r="1.01" fill="#ffffff" fill-opacity="0.63"/>
    <circle cx="650.7" cy="174.6" r="0.77" fill="#ffffff" fill-opacity="0.38"/>
    <circle cx="38.8" cy="889.4" r="1.34" fill="#ffffff" fill-opacity="0.69"/>
    <circle cx="5.1" cy="844.4" r="1.29" fill="#ffffff" fill-opacity="0.5"/>
    <circle cx="593.4" cy="452.5" r="0.67" fill="#ffffff" fill-opacity="0.23"/>
    <circle cx="185.8" cy="38.8" r="0.8" fill="#ffffff" fill-opacity="0.71"/>
    <circle cx="556.1" cy="845.3" r="1.25" fill="#ffffff" fill-opacity="0.35"/>
    <circle cx="443.0" cy="436.1" r="1.35" fill="#ffffff" fill-opacity="0.54"/>
    <circle cx="212.2" cy="642.0" r="1.56" fill="#ffffff" fill-opacity="0.31"/>
    <circle cx="704.0" cy="15.2" r="0.71" fill="#ffffff" fill-opacity="0.33"/>
    <circle cx="595.1" cy="944.7" r="1.3" fill="#ffffff" fill-opacity="0.4"/>
    <circle cx="704.1" cy="328.6" r="0.69" fill="#ffffff" fill-opacity="0.83"/>
    <circle cx="504.6" cy="692.8" r="1.2" fill="#ffffff" fill-opacity="0.88"/>
    <circle cx="375.6" cy="839.7" r="1.24" fill="#ffffff" fill-opacity="0.79"/>
    <circle cx="349.8" cy="724.6" r="1.08" fill="#ffffff" fill-opacity="0.38"/>
    <circle cx="169.6" cy="622.6" r="0.49" fill="#ffffff" fill-opacity="0.83"/>
    <circle cx="115.7" cy="26.9" r="0.53" fill="#ffffff" fill-opacity="0.85"/>
    <circle cx="275.9" cy="141.8" r="0.43" fill="#ffffff" fill-opacity="0.18"/>
    <circle cx="554.1" cy="633.9" r="1.24" fill="#ffffff" fill-opacity="0.7"/>
    <circle cx="52.6" cy="590.5" r="0.84" fill="#ffffff" fill-opacity="0.76"/>
    <circle cx="655.7" cy="891.3" r="0.48" fill="#ffffff" fill-opacity="0.8"/>
    <circle cx="731.5" cy="944.3" r="0.53" fill="#ffffff" fill-opacity="0.3"/>
    <circle cx="89.6" cy="34.4" r="1.42" fill="#ffffff" fill-opacity="0.76"/>
    <circle cx="507.3" cy="825.1" r="1.16" fill="#ffffff" fill-opacity="0.37"/>
    <circle cx="79.9" cy="97.9" r="1.31" fill="#ffffff" fill-opacity="0.3"/>
    <circle cx="255.3" cy="423.8" r="0.43" fill="#ffffff" fill-opacity="0.34"/>
    <circle cx="226.1" cy="715.8" r="0.84" fill="#ffffff" fill-opacity="0.39"/>
    <circle cx="771.2" cy="503.7" r="1.42" fill="#ffffff" fill-opacity="0.61"/>
    <circle cx="24.8" cy="412.9" r="0.92" fill="#ffffff" fill-opacity="0.73"/>
    <circle cx="277.4" cy="704.7" r="1.05" fill="#ffffff" fill-opacity="0.31"/>
    <circle cx="689.8" cy="90.9" r="1.38" fill="#ffffff" fill-opacity="0.28"/>
    <circle cx="1.0" cy="202.0" r="1.31" fill="#ffffff" fill-opacity="0.88"/>
    <circle cx="3.5" cy="490.8" r="0.99" fill="#ffffff" fill-opacity="0.75"/>
    <circle cx="147.6" cy="494.6" r="0.82" fill="#ffffff" fill-opacity="0.77"/>
    <circle cx="208.5" cy="943.9" r="0.74" fill="#ffffff" fill-opacity="0.31"/>
    <circle cx="559.6" cy="498.3" r="0.53" fill="#ffffff" fill-opacity="0.63"/>
    <circle cx="64.7" cy="787.9" r="1.24" fill="#ffffff" fill-opacity="0.74"/>
    <circle cx="502.3" cy="355.6" r="0.88" fill="#ffffff" fill-opacity="0.45"/>
    <circle cx="712.3" cy="86.2" r="1.47" fill="#ffffff" fill-opacity="0.17"/>
    <circle cx="164.9" cy="263.2" r="1.48" fill="#ffffff" fill-opacity="0.53"/>
    <circle cx="303.4" cy="884.0" r="0.68" fill="#ffffff" fill-opacity="0.5"/>
    <circle cx="425.2" cy="754.5" r="1.3" fill="#ffffff" fill-opacity="0.63"/>
    <circle cx="278.8" cy="326.7" r="0.59" fill="#ffffff" fill-opacity="0.78"/>
    <circle cx="529.7" cy="742.0" r="0.6" fill="#ffffff" fill-opacity="0.48"/>
    <circle cx="618.7" cy="579.2" r="0.55" fill="#ffffff" fill-opacity="0.5"/>
    <circle cx="708.1" cy="237.9" r="0.63" fill="#ffffff" fill-opacity="0.38"/>
    <circle cx="562.5" cy="843.7" r="0.59" fill="#ffffff" fill-opacity="0.27"/>
    <circle cx="198.1" cy="326.6" r="1.03" fill="#ffffff" fill-opacity="0.27"/>
    <circle cx="262.5" cy="189.3" r="1.57" fill="#ffffff" fill-opacity="0.7"/>
    <circle cx="81.4" cy="962.4" r="0.52" fill="#ffffff" fill-opacity="0.44"/>
    <circle cx="787.1" cy="794.9" r="1.28" fill="#ffffff" fill-opacity="0.48"/>
    <circle cx="157.0" cy="638.0" r="0.53" fill="#ffffff" fill-opacity="0.3"/>
    <circle cx="310.7" cy="33.9" r="0.88" fill="#ffffff" fill-opacity="0.74"/>
    <circle cx="554.8" cy="500.5" r="1.16" fill="#ffffff" fill-opacity="0.5"/>
    <circle cx="113.5" cy="603.7" r="0.89" fill="#ffffff" fill-opacity="0.71"/>
    <circle cx="726.4" cy="430.0" r="1.09" fill="#ffffff" fill-opacity="0.71"/>
    <circle cx="336.9" cy="228.6" r="1.27" fill="#ffffff" fill-opacity="0.81"/>
    <circle cx="619.2" cy="700.1" r="1.42" fill="#ffffff" fill-opacity="0.66"/>
    <circle cx="513.2" cy="453.9" r="0.78" fill="#ffffff" fill-opacity="0.62"/>
    <circle cx="78.3" cy="419.6" r="1.34" fill="#ffffff" fill-opacity="0.68"/>
    <circle cx="503.7" cy="250.1" r="0.91" fill="#ffffff" fill-opacity="0.49"/>
    <circle cx="497.3" cy="409.3" r="1.21" fill="#ffffff" fill-opacity="0.85"/>
    <circle cx="146.4" cy="654.5" r="1.33" fill="#ffffff" fill-opacity="0.44"/>
    <circle cx="391.9" cy="974.6" r="0.45" fill="#ffffff" fill-opacity="0.56"/>
    <circle cx="128.7" cy="781.8" r="1.53" fill="#ffffff" fill-opacity="0.54"/>
    <circle cx="80.9" cy="574.6" r="1.05" fill="#ffffff" fill-opacity="0.69"/>
    <circle cx="409.8" cy="639.3" r="1.39" fill="#ffffff" fill-opacity="0.54"/>
    <circle cx="328.3" cy="948.0" r="0.65" fill="#ffffff" fill-opacity="0.66"/>
    <circle cx="314.0" cy="762.7" r="0.55" fill="#ffffff" fill-opacity="0.89"/>
    <circle cx="284.4" cy="56.6" r="0.73" fill="#ffffff" fill-opacity="0.45"/>
    <circle cx="10.6" cy="418.6" r="0.9" fill="#ffffff" fill-opacity="0.67"/>
    <circle cx="281.7" cy="265.2" r="0.67" fill="#ffffff" fill-opacity="0.71"/>
    <circle cx="751.9" cy="527.1" r="0.66" fill="#ffffff" fill-opacity="0.75"/>
    <circle cx="313.6" cy="212.0" r="0.56" fill="#ffffff" fill-opacity="0.73"/>
    <circle cx="647.7" cy="634.3" r="0.96" fill="#ffffff" fill-opacity="0.57"/>
    <circle cx="180.8" cy="963.9" r="0.82" fill="#ffffff" fill-opacity="0.63"/>
    <circle cx="655.0" cy="816.2" r="0.96" fill="#ffffff" fill-opacity="0.37"/>
    <circle cx="438.6" cy="125.2" r="1.4" fill="#ffffff" fill-opacity="0.42"/>
    <circle cx="680.5" cy="267.4" r="0.85" fill="#ffffff" fill-opacity="0.34"/>
    <circle cx="340.9" cy="185.9" r="0.4" fill="#ffffff" fill-opacity="0.69"/>
    <circle cx="225.0" cy="245.0" r="0.76" fill="#ffffff" fill-opacity="0.51"/>
  </g>
  <circle cx="400" cy="400" r="150" fill="none" stroke="#ffffff" stroke-opacity="0.10" stroke-width="1"/>
  <circle cx="400" cy="400" r="210" fill="none" stroke="#ffffff" stroke-opacity="0.06" stroke-width="1"/>
  <circle cx="550" cy="400" r="4" fill="#ffffff" fill-opacity="0.6"/>
  <text x="400" y="430" font-family="Arial Black, Arial, sans-serif" font-size="150" font-weight="900"
        fill="#ffffff" fill-opacity="0.06" text-anchor="middle" letter-spacing="-4">VOID</text>
  <g font-family="Arial, sans-serif" text-anchor="middle">
    <text x="400" y="905" font-size="26" font-weight="700" letter-spacing="3" fill="#e7e5e4" fill-opacity="0.9">TRIBAL ONIX 'SB'</text>
  </g>
</svg>
